<svg version="1.1" preserveAspectRatio="none" xmlns="http://www.w3.org/2000/svg" width="500" height="500" viewBox="0 0 500 500"><rect width="100%" height="100%" fill="#FFFFFF" fill-opacity="1"/><svg viewBox="219.7834 482.3053 526.0422 154" width="333" height="97.48647541965265" x="83.5px" y="201.2568px" xmlns="http://www.w3.org/2000/svg" xmlns:xlink="http://www.w3.org/1999/xlink" preserveAspectRatio="none"><defs></defs><style>.companyName {fill:#4D4D4D;fill-opacity:1;}.icon1 {fill:#FF834F;fill-opacity:1;}.icon2 {fill:#FF4949;fill-opacity:1;}.icon3 {fill:#FFAE78;fill-opacity:1;}.icon3-str {stroke:#FFAE78;stroke-opacity:1;}.shapeStroke-str {stroke:#313131;stroke-opacity:1;}</style><g opacity="1" transform="rotate(0 219.7834 494.3053)">
<svg width="72.8486" height="130" x="219.7834" y="494.3053" version="1.1" preserveAspectRatio="none" viewBox="55.17327117919922 20.001705169677734 89.6573257446289 159.99539184570312">
  <g transform="matrix(1 0 0 1 0 0)"><g><path d="M113.9 103.62c-.16.313-.317.664-.372.927.288-.167.366-.571.372-.927z" data-color="1" class="icon1"></path><path d="M122.489 107.682l-.007.196c.158.121.26.126.007-.196z" data-color="1" class="icon1"></path><path d="M113.869 103.13c.016.12.034.298.03.49l.045-.086-.075-.404c.001-.001.001-.001 0 0z" data-color="1" class="icon1"></path><path d="M129.003 123.559c-.21-.98-.476-2.049-1.024-2.763-.103.377-.063.712.119 1.005.168 1.64.222 2.926-.194 4.513-.078.298-.348.113-.22.894.026.157.022.436.126.585.08-.397.281-.86.353-1.264.155.388.162 1.356.163 1.355 0 0-.036-.368-.185-.354-.159.552-.241 1.213-.431 1.692a3.342 3.342 0 01-.142-.944 3.137 3.137 0 00-.086-.847c-.182.953-.2 2.044-.143 2.945.068 1.072-.546 2.714-.46 3.68.119 1.336 1.139-2.083 1.238-2.555.252-1.207.7-3.011.55-4.153.173-.35.438-1.069.661-2.47.349-2.196-.208-.772-.325-1.319z" data-color="1" class="icon1"></path><path d="M130.904 110.832c.348.305.51.295.527.255.23-.543-.648-.774-.527-.255z" data-color="1" class="icon1"></path><path d="M142.947 51.819c-2.576-9.952-6.914-19.134-12.494-24.319-.62-.576-1.886-1.767-2.696-1.316-3.924 2.184-5.293-2.669-8.539-3.242-1.122-.198-2.017-.069-2.713.331-.178-.238-.347-.489-.544-.693-.3-.31-.639-.557-.979-.795-.45-.315-.905-.611-1.401-.837-.224-.102-.547-.057-.786-.133-.166-.053-.236-.245-.395-.307a9.4 9.4 0 00-1.722-.499c-.174-.032-.427.047-.679.126-.455.142-.595-.18-1.302.424-.113-.063-.146-.159-.267-.131-.274.062-.604.202-.893.284-.931.246-1.871.481-2.802.826-1.221.422-2.352 1.012-3.534 1.75-.255.172-.548.396-.771.521-.58.325-1.129.603-1.689.89l-.018.056c-.284.222-.566.439-.845.651l.011-.075-.42.543c.12.102.309.136.326.324.016.183-.139.52-.217.795l-.451.372c.176.209.342.42.519.662-.706.364-1.391.756-1.936.951-.458.164-.898.428-1.426.913l-.755.823c-.473.719-.255.989-.154 1.373-.348.568.093.521.115.746-.206.454-.375.821-.577 1.255-.081.018-.171.046-.246.053-.178.018-.33.001-.531.052-.08.02-.261.181-.4.279-.003.229-.01.407-.018.588l.101-.1c.405.321.785.664 1.143 1.027l-.103.111.298-.105-.073.345c-.502-.154-.96-.291-1.436-.415-.296-.077-.586-.163-.924-.196-.367-.035-.815.019-1.175-.032-.327-.047-.614-.118-1.287.518l-.377.17a5.581 5.581 0 00-.051.08l.238.082c-.032.14-.061.264-.1.424l-.706.628-.239.408.43.097-.182.377c.201.523.356 1.037.488 1.571-.651 1.2-.965 2.2-.988 3-.576-.028-1.058-.184-1.163-.784l-.062.307c-1.21-.806-2.179-1.573-3.606-1.917-.978.717-1.312.504-1.684.338-.111.106-.27.24-.268.256.024.208.068.403.11.651l-.779.679c.068.218.136.409.176.619.033.171-.072.459.066.528.421.21.251.774-.457 1.714l-.684.537a44.76 44.76 0 01-.389-.121c-.078.363-.149.656-.224.955-.052.206-.121.425-.158.624-.037.197-.042.374-.068.608-.382.216-.587.33-.772.433-.322-.008-.268-.393-.953-.024l-.123.376c-.529.555-.888.652-1.259.784-.504.507-.642.825-.556 1.036.208.513.454 1.013.632 1.595.041.135-.086.48-.299.78-.687.957-1.389 1.896-2.068 2.861l-.073.389c-.397.007-.784.243-1.121.753-.306.463-.82.902-1.306 1.254-.645.468-.957 1.035-1.241 1.686-.192.442-.529.883-.764 1.333-.407.778-.876 1.578-1.158 2.35a23.783 23.783 0 00-.861 3.046c-.447 2.035-.975 4.121-1.257 6.133-.169 1.207-.185 2.451-.195 3.689a81.83 81.83 0 00-.001 1.108c-.161.922-.111 1.807.047 2.666-.242.494-.438.897-.603 1.24-.215.144-.374.249-.538.357l-.092.296c-.029-.002-.053-.007-.063-.02-.218-.268-.516-.519-.539-.89-.113-1.831-.159-3.679-.214-5.517-.067-2.217-.136-4.44-.155-6.655-.009-.968-.411-1.576-1.422-1.323-.501.126-1.326.762-1.791 1.305-.464.542-.745 1.277-.972 1.889-.538 1.449-1.019 2.91-1.516 4.367-.006.018-.015.037-.018.054-.117.833-.31 1.7-.319 2.479-.013.994.116 2 .177 2.989.053.868.071 1.76.081 2.651.014 1.207.019 2.417.014 3.625a82.067 82.067 0 01-.08 3.214 49.048 49.048 0 01-.187 2.693 204.28 204.28 0 01-.407 3.721c-.253 2.174-.548 4.366-.4 6.515.055.798.247 1.612.245 2.448-.002.735.032 1.469.084 2.202.058.829.162 1.657.227 2.493.025.328.012.661.01.994-.019 2.315.009 4.647.174 6.946.239 3.326.7 6.697 1.075 10.032.247 2.194.403 4.437.697 6.6.177 1.3.447 2.631.581 3.947.177 1.737.484 3.481.705 5.223.168 1.324.392 2.649.593 3.965.184 1.203.348 2.421.514 3.631.139 1.013.263 2.032.418 3.042.198 1.293.415 2.592.625 3.887.023.14.041.286.088.424.482 1.424.541 2.92.776 4.356.196 1.202.475 2.43.725 3.641.151.731.371 1.483.444 2.16.134 1.239.973 2.321 1.858 3.37l.153-.006-.269-.981c.206.137.44.245.638.428.503.468 1.147.331 1.559 1.092.119.219.226.442.334.662.101.205.197.412.353.738.116-.251.172-.377.229-.505.468.237.65.627.698 1.1.271.08.541.157.812.229.294-.641.679-1.266.859-2.031.748-3.18.235-6.497.12-9.709-.087-2.429-.266-4.86-.435-7.287-.038-.546-.137-1.099-.209-1.652l.191-.027c.077.576.182 1.151.225 1.72.179 2.39.299 4.807.523 7.18.093.981.384 1.975.575 2.946.109.553.152 1.116.236 1.665.137.897.235 1.787.437 2.636.067.282.431.492.641.755.17.214.325.451.461.695.056.101.071.257.067.379-.027.856.264 1.419.969 1.603.37-.564.755-1.174 1.17-1.857l-.37.02c-.129-.656-.077-1.159.619-1.265-.014-.543-.03-1.094-.049-1.692.303.082.436-.169.416-.638-.018-.437.002-.891-.009-1.338.015.134.032.267.046.399.063.581.05 1.172.09 1.743.103 1.503.158 3.017.331 4.517.114.987.402 1.9.626 2.778.048.187.221.417.323.401.183-.029.378-.044.542-.364.532-1.041.483-2.246.537-3.346.075.25.117.565.229.728.224.326.475.507.693.774.099.122.215.295.242.495.086.64.132 1.289.188 1.913.041.455.046.895.303 1.174.133.145.169.547.247.829.15.541.284.568.598.237a.363.363 0 01.403-.093c.32.149.514-.094.526-.784.011-.632-.011-1.274-.021-1.933-.005-.366-.007-.737-.013-1.208.273.477.409.971.473 1.591.056.542.144 1.059.248 1.537.055.253.161.566.274.597.198.055.381-.123.522-.612.114-.397.312-.746.497-1 .245-.337.345-.805.429-1.369.057-.383.17-.733.241-1.114.123-.657.267-1.317.337-2.004.093-.914.142-1.859.176-2.799l.011-.288c.022-.069.043-.141.063-.216a33.13 33.13 0 00.697-3.478c.122-.805.099-1.672.065-2.491-.093-2.24-.218-4.485-.326-6.725-.022-.464-.063-.942-.07-1.404.065.246.122.493.137.74.119 1.94.215 3.886.322 5.827.125 2.284.26 4.572.384 6.857.053.979.243 1.727.638 1.825.196.049.499-.304.664-.692.164-.387.243-1.032.305-1.57.151-1.299.291-2.604.439-3.906.002-.016.005-.033.005-.048.006-.303.016-.607.026-.911.066.545.166 1.073.355 1.535l.341-.522a9.3 9.3 0 00.698.444l-.063.149c.09-.053.185-.133.271-.159.595-.173.809-.492 1.039-1.402.078-.309.264-.644.348-.954.169-.629.39-1.296.442-1.852.093-.994.113-1.997.137-2.989.006-.271-.085-.478-.143-.775.589-.659-.15-.508-.107-.874l.128-.049c.079-.31.218-.653.231-.92.042-.851.033-1.663.063-2.479.046-1.284.115-2.578.159-3.861.031-.929-.019-1.824.004-2.739.01-.366.151-.776.167-1.141.067-1.544.114-3.092.18-4.635.071-1.666.156-3.339.215-5.005.028-.785-.007-1.572.008-2.363.019-.973.065-1.952.068-2.926.002-.713-.051-1.432-.079-2.157-.011-.287-.01-.575-.012-.863-.004-.893-.026-1.807.032-2.73.077-1.228.214-2.469.358-3.702l.085-.039c.32-.525.609-1.009.892-1.489.114-.363.219-.703.317-1.024.929-1.686.835-.534 1.408-1.199.238-.468.501-.988.774-1.538l.403-.363c-.091-.498-.154-.848-.217-1.201l.11-.177c.124-.466.248-.935.428-1.635l.264-.76.015-.574.292-.764a820.817 820.817 0 00-.561-5.284l.417-1c.203.062.43.005.556.191.339.499.648.212 1.542-1.521l.537-.574c.183-.619.319-1.085.47-1.605l.44-.559c.201.486.396.957.615 1.476l-.658 1.134c-.028.596.216.393.526-.04.665-.865 1.079-1.828 1.391-2.872.891.149 1.727.346 2.246.621 1.144.604 3.675.545 5.224 1.638.527.372 1.064 1.242 1.648 1.442.469.16 1.038-.086 1.427-.304a.569.569 0 01.002-.001c.266-.149.448-.284.456-.266 0 0-.187.299-.382.672.168.91.5 2.625.639 2.74.602.501 2.532 3.522 3.74 4.973.263-.54.333-1.744.343-1.748 0 0 1.081 4.783 2.083 6.627.244.449.851.347 1.072.152.167-.147.377-4.37.466-5.039.107-.805.155-2.232.194-3.361-.189-.144-.46-.451-.301-.555.111-.073.365-.015 0 0 .136.15.236.267.308.359.027-.764.051-1.356.089-1.459.012-.031.005-.923-.029-.924 0 0 1.562-.048 1.859-.859.642-1.751.831.679.876.709 0 0 .259.465.386 1.139.149.792 1.225 2.447.912 3.388-.485 1.459.556.234.556.234s.248 4.641.262 4.637c0 0 .677-.487.625-.39-.053.099.829 2.912.762 4.604-.028.703-.094 1.342-.102 1.933-.002.127-.008.291.072.365.12-.66.183-1.387.481-1.949.224.449.343 1.542.351 1.54 0 0 .966-5.692.889-8.475-.029-1.037-.34-2.976.071-3.451.884-1.023 2.168 6.746 2.164 8.17a5.95 5.95 0 00.096 1.059c-.464.909-.409 1.292-.383 1.901.019.443.224.867.499 1.03.17-.589.203-1.318.13-1.962.172.522.37.924.496 1.121.342.534.259 4.195 1.492 3.967 1.416-.261 2.884-8.375 3.305-10.175.208-.887.675-4.375 1.433-5.025 1.131-.971 1.213 2.608 1.216 3.351.012 2.637.965 1.486.984 1.484-.004.008 5.703-43.499.961-61.818zM75.122 161.847a.629.629 0 00.185-.061l.04.367a3.057 3.057 0 00-.225-.306zm.635 3.78l.095.743a5.555 5.555 0 01-.095-.743zm26.494-66.052l.284.038a.311.311 0 01-.284-.038zm19.993 6.988c-.068.135-.471-1.329-.27-1.245.234.802.3 1.186.27 1.245z" data-color="1" class="icon1"></path></g></g>
</svg>
</g><g opacity="1" transform="rotate(0 356.632 509.3053)">
<svg width="389.1936" height="100" x="356.632" y="509.3053" version="1.1" preserveAspectRatio="none" viewBox="-0.32 -31.48 123.75999999999999 31.8">
  <g transform="matrix(1 0 0 1 0 0)" class="companyName"><path id="id-D6z1nYkh6" d="M18.24-21.52L24.24-21.52L15.16 0L8.72 0L-0.32-21.52L6.12-21.52L12.08-6.88L18.24-21.52Z M26.80 0L26.80-21.52L33.04-21.52L33.04 0L26.80 0ZM29.92-24.52Q28.20-24.52 27.12-25.52Q26.04-26.52 26.04-28L26.04-28Q26.04-29.48 27.12-30.48Q28.20-31.48 29.92-31.48L29.92-31.48Q31.64-31.48 32.72-30.52Q33.80-29.56 33.80-28.12L33.80-28.12Q33.80-26.56 32.72-25.54Q31.64-24.52 29.92-24.52L29.92-24.52Z M51.92-21.84Q55.92-21.84 58.38-19.44Q60.84-17.04 60.84-12.32L60.84-12.32L60.84 0L54.60 0L54.60-11.36Q54.60-13.92 53.48-15.18Q52.36-16.44 50.24-16.44L50.24-16.44Q47.88-16.44 46.48-14.98Q45.08-13.52 45.08-10.64L45.08-10.64L45.08 0L38.84 0L38.84-21.52L44.80-21.52L44.80-19Q46.04-20.36 47.88-21.10Q49.72-21.84 51.92-21.84L51.92-21.84Z M87.80-10.68Q87.80-10.56 87.68-9L87.68-9L71.40-9Q71.84-7 73.48-5.84Q75.12-4.68 77.56-4.68L77.56-4.68Q79.24-4.68 80.54-5.18Q81.84-5.68 82.96-6.76L82.96-6.76L86.28-3.16Q83.24 0.32 77.40 0.32L77.40 0.32Q73.76 0.32 70.96-1.10Q68.16-2.52 66.64-5.04Q65.12-7.56 65.12-10.76L65.12-10.76Q65.12-13.92 66.62-16.46Q68.12-19 70.74-20.42Q73.36-21.84 76.60-21.84L76.60-21.84Q79.76-21.84 82.32-20.48Q84.88-19.12 86.34-16.58Q87.80-14.04 87.80-10.68L87.80-10.68ZM76.64-17.12Q74.52-17.12 73.08-15.92Q71.64-14.72 71.32-12.64L71.32-12.64L81.92-12.64Q81.60-14.68 80.16-15.90Q78.72-17.12 76.64-17.12L76.64-17.12Z M113.04-10.68Q113.04-10.56 112.92-9L112.92-9L96.64-9Q97.08-7 98.72-5.84Q100.36-4.68 102.80-4.68L102.80-4.68Q104.48-4.68 105.78-5.18Q107.08-5.68 108.20-6.76L108.20-6.76L111.52-3.16Q108.48 0.32 102.64 0.32L102.64 0.32Q99.00 0.32 96.20-1.10Q93.40-2.52 91.88-5.04Q90.36-7.56 90.36-10.76L90.36-10.76Q90.36-13.92 91.86-16.46Q93.36-19 95.98-20.42Q98.60-21.84 101.84-21.84L101.84-21.84Q105.00-21.84 107.56-20.48Q110.12-19.12 111.58-16.58Q113.04-14.04 113.04-10.68L113.04-10.68ZM101.88-17.12Q99.76-17.12 98.32-15.92Q96.88-14.72 96.56-12.64L96.56-12.64L107.16-12.64Q106.84-14.68 105.40-15.90Q103.96-17.12 101.88-17.12L101.88-17.12Z M117.20 0L117.20-29.68L123.44-29.68L123.44 0L117.20 0Z"/></g>
</svg>
</g><g opacity="1" transform="rotate(0 322.632 482.3053)">
<svg width="6" height="154" x="322.632" y="482.3053" version="1.1" preserveAspectRatio="none" viewBox="0 0 6 154">
  <defs><rect x="0" y="0" width="6" height="154" rx="0px" ry="0px" id="id-tBXipXk0b1701514688900"></rect></defs><use class="companyName shapeStroke-str" style="stroke-width:0;" xlink:href="#id-tBXipXk0b1701514688900"></use>
</svg>
</g></svg></svg>